<svg width="64" height="64" viewBox="0 0 64 64" fill="none" xmlns="http://www.w3.org/2000/svg">
<g clip-path="url(#clip0_202_3)">
<circle cx="32" cy="32" r="32" fill="#53A93F"/>
<g style="mix-blend-mode:luminosity">
<circle cx="32" cy="32" r="32" fill="url(#paint0_linear_202_3)"/>
</g>
<path d="M29.9235 37.9254V37.782C29.9395 36.2604 30.0988 35.0494 30.4015 34.1491C30.7043 33.2489 31.1345 32.5199 31.6922 31.9622C32.2498 31.4046 32.9191 30.8907 33.6998 30.4207C34.1699 30.1338 34.5921 29.7953 34.9665 29.4049C35.341 29.0065 35.6358 28.5484 35.8509 28.0306C36.0739 27.5127 36.1855 26.9391 36.1855 26.3098C36.1855 25.529 36.0022 24.8518 35.6358 24.2782C35.2693 23.7046 34.7793 23.2624 34.1659 22.9517C33.5524 22.641 32.8713 22.4857 32.1224 22.4857C31.4691 22.4857 30.8397 22.6211 30.2342 22.892C29.6287 23.1628 29.1228 23.5891 28.7165 24.1707C28.3102 24.7522 28.0752 25.5131 28.0115 26.4532H25C25.0637 25.0988 25.4143 23.9396 26.0516 22.9756C26.6969 22.0116 27.5454 21.2747 28.597 20.7648C29.6566 20.2549 30.8317 20 32.1224 20C33.5245 20 34.7435 20.2788 35.7792 20.8365C36.8228 21.3942 37.6275 22.159 38.1931 23.131C38.7667 24.1029 39.0535 25.2103 39.0535 26.4532C39.0535 27.3295 38.9181 28.1222 38.6472 28.8313C38.3843 29.5403 38.0019 30.1737 37.5 30.7314C37.0061 31.289 36.4085 31.783 35.7075 32.2132C35.0064 32.6514 34.4447 33.1134 34.0225 33.5994C33.6002 34.0774 33.2935 34.6471 33.1023 35.3083C32.9111 35.9696 32.8075 36.7941 32.7916 37.782V37.9254H29.9235ZM31.4532 45C30.8636 45 30.3577 44.7889 29.9355 44.3666C29.5132 43.9444 29.3021 43.4385 29.3021 42.8489C29.3021 42.2594 29.5132 41.7535 29.9355 41.3313C30.3577 40.909 30.8636 40.6979 31.4532 40.6979C32.0427 40.6979 32.5486 40.909 32.9708 41.3313C33.3931 41.7535 33.6042 42.2594 33.6042 42.8489C33.6042 43.2393 33.5046 43.5978 33.3054 43.9245C33.1142 44.2511 32.8553 44.514 32.5287 44.7132C32.21 44.9044 31.8515 45 31.4532 45Z" fill="white"/>
</g>
<defs>
<linearGradient id="paint0_linear_202_3" x1="0" y1="0" x2="64" y2="64" gradientUnits="userSpaceOnUse">
<stop stop-color="white" stop-opacity="0.44"/>
<stop offset="1" stop-opacity="0.26"/>
</linearGradient>
<clipPath id="clip0_202_3">
<rect width="64" height="64" fill="white"/>
</clipPath>
</defs>
</svg>
