<svg width="64" height="64" viewBox="0 0 64 64" fill="none" xmlns="http://www.w3.org/2000/svg">
<g clip-path="url(#clip0_293_2)">
<path d="M29.1521 1.76035C30.3255 -0.586786 33.6745 -0.586784 34.848 1.76036L63.6597 59.3913C64.7183 61.5087 63.1788 64 60.8118 64H3.18821C0.821207 64 -0.718294 61.5087 0.340263 59.3913L29.1521 1.76035Z" fill="url(#paint0_linear_293_2)"/>
<path fill-rule="evenodd" clip-rule="evenodd" d="M61.8708 60.2857L33.0591 2.65469C32.6226 1.78177 31.3774 1.78177 30.941 2.65469L2.12916 60.2857C1.73523 61.0736 2.30835 62 3.18821 62H60.8118C61.6917 62 62.2648 61.0736 61.8708 60.2857ZM34.848 1.76036C33.6745 -0.586784 30.3255 -0.586786 29.1521 1.76035L0.340263 59.3913C-0.718294 61.5087 0.821208 64 3.18821 64H60.8118C63.1788 64 64.7183 61.5087 63.6597 59.3913L34.848 1.76036Z" fill="#DA9A00"/>
<path d="M33.6288 43.92C33.2088 44.34 32.6838 44.55 32.0538 44.55C31.4238 44.55 30.8838 44.34 30.4338 43.92C30.0138 43.47 29.7888 42.93 29.7588 42.3L29.2188 23.715C29.1888 23.025 29.4138 22.425 29.8938 21.915C30.4038 21.405 31.0038 21.15 31.6938 21.15H32.4138C33.1038 21.15 33.6888 21.405 34.1688 21.915C34.6788 22.425 34.9188 23.025 34.8888 23.715L34.3488 42.3C34.3188 42.93 34.0788 43.47 33.6288 43.92ZM32.1888 48.15C32.8788 48.15 33.4788 48.405 33.9888 48.915C34.4988 49.425 34.7538 50.025 34.7538 50.715V51.435C34.7538 52.125 34.4988 52.725 33.9888 53.235C33.4788 53.745 32.8788 54 32.1888 54H31.9188C31.2288 54 30.6288 53.745 30.1188 53.235C29.6088 52.725 29.3538 52.125 29.3538 51.435V50.715C29.3538 50.025 29.6088 49.425 30.1188 48.915C30.6288 48.405 31.2288 48.15 31.9188 48.15H32.1888Z" fill="#121212"/>
</g>
<defs>
<linearGradient id="paint0_linear_293_2" x1="19" y1="6" x2="52" y2="71.5" gradientUnits="userSpaceOnUse">
<stop offset="0.421875" stop-color="#FEC900"/>
<stop offset="0.630208" stop-color="#F0B700"/>
<stop offset="1" stop-color="#EEB31C"/>
</linearGradient>
<clipPath id="clip0_293_2">
<rect width="64" height="64" fill="white"/>
</clipPath>
</defs>
</svg>
